<?xml version="1.0" standalone="no"?>
<!DOCTYPE svg PUBLIC "-//W3C//DTD SVG 20010904//EN"
 "http://www.w3.org/TR/2001/REC-SVG-20010904/DTD/svg10.dtd">
<svg version="1.0" xmlns="http://www.w3.org/2000/svg"
 width="1262.000000pt" height="1400.000000pt" viewBox="0 0 1262.000000 1400.000000"
 preserveAspectRatio="xMidYMid meet">
<metadata>
Created by potrace 1.16, written by Peter Selinger 2001-2019
</metadata>
<g transform="translate(0.000000,1400.000000) scale(0.100000,-0.100000)"
fill="#000000" stroke="none">
<path d="M0 8182 l0 -5818 28 1 c15 1 32 -3 38 -7 15 -11 6 -50 -9 -41 -6 3
-7 1 -3 -6 6 -9 11 -9 22 0 12 9 13 9 9 -3 -4 -9 1 -18 11 -22 13 -5 15 -2 10
19 -4 14 -2 25 4 25 5 0 10 -7 10 -15 0 -16 34 -38 44 -28 3 3 6 2 6 -4 0 -7
21 -9 57 -6 32 2 67 3 78 2 11 -1 37 -2 57 -2 20 0 35 -4 32 -9 -3 -4 6 -8 20
-8 14 0 26 -5 26 -11 0 -8 5 -8 15 1 8 7 15 9 15 6 0 -4 10 0 22 8 15 11 26
12 40 5 10 -5 23 -7 28 -4 5 3 11 1 15 -4 3 -6 12 -8 20 -5 8 3 35 -2 61 -12
39 -15 47 -15 55 -3 5 8 9 9 9 2 0 -8 6 -8 25 0 18 9 23 17 19 34 -4 15 9 50
38 105 59 114 75 127 119 101 13 -8 16 -12 6 -9 -10 3 -26 -3 -37 -14 -11 -11
-15 -20 -9 -20 5 0 7 -5 4 -10 -4 -6 -11 -7 -17 -4 -15 10 -29 -18 -16 -33 8
-10 7 -13 -4 -13 -10 0 -14 -10 -13 -31 1 -22 -4 -35 -21 -46 -13 -8 -21 -19
-18 -24 3 -5 0 -9 -5 -9 -6 0 -11 -4 -11 -10 0 -5 7 -10 15 -10 8 0 15 5 15
10 0 42 130 134 154 110 7 -7 6 -10 -3 -10 -11 0 -11 -3 -1 -15 12 -15 5 -20
-25 -16 -5 1 -1 -6 9 -14 25 -19 32 -19 40 1 5 14 9 14 23 3 14 -12 16 -12 8
0 -6 11 -4 13 11 8 18 -7 18 -6 1 7 -16 12 -15 14 14 20 17 3 45 6 61 6 18 0
27 4 23 11 -5 7 5 9 31 4 49 -7 60 -18 39 -39 -9 -9 -13 -21 -9 -27 4 -8 3 -9
-4 -5 -20 12 -13 -13 7 -31 11 -9 18 -20 16 -23 -2 -4 8 -7 23 -7 15 0 39 -3
55 -6 15 -3 27 -1 27 4 0 15 19 10 39 -10 11 -11 22 -17 25 -13 10 9 36 11 36
2 0 -4 23 -8 50 -7 28 0 50 4 50 8 0 5 10 5 23 0 12 -4 33 -7 47 -6 42 3 110
16 110 22 0 11 -47 44 -82 59 -21 9 -38 20 -38 25 0 5 25 -2 56 -16 66 -29 74
-30 74 -9 0 8 4 13 9 10 10 -7 21 16 21 44 0 10 5 22 11 26 6 4 9 -1 8 -12 -2
-11 -1 -23 2 -29 4 -5 1 -244 -6 -530 -8 -286 -16 -639 -19 -785 -13 -558 -19
-775 -22 -779 -2 -2 -11 2 -20 10 -13 11 -15 26 -11 74 7 83 2 91 -53 84 l-45
-6 43 -1 c96 -4 13 -32 -94 -32 -24 0 -44 -4 -44 -9 0 -13 28 -22 35 -11 3 5
18 2 33 -6 15 -7 35 -14 45 -14 10 0 15 -5 12 -10 -4 -6 -10 -8 -14 -6 -4 3
-70 8 -147 11 -103 5 -142 10 -150 21 -6 8 -17 14 -25 14 -10 -1 -9 -4 3 -14
26 -20 22 -27 -9 -15 -22 8 -37 6 -73 -10 -25 -11 -107 -34 -182 -52 -129 -30
-138 -34 -138 -56 0 -14 6 -23 15 -23 16 0 21 -45 6 -54 -4 -3 -40 -8 -78 -11
-39 -3 -136 -19 -216 -35 -158 -32 -187 -36 -171 -20 5 5 39 14 74 20 36 5
106 19 155 29 50 11 103 20 119 21 25 0 28 3 23 26 -3 16 -1 22 5 16 5 -5 20
-7 34 -4 20 4 23 9 18 26 -4 11 -7 22 -8 23 -1 1 -56 -9 -121 -23 -66 -14
-160 -33 -210 -43 -53 -11 -89 -23 -88 -29 2 -6 -3 -9 -11 -6 -7 3 -16 -2 -19
-10 -4 -9 -16 -16 -27 -16 -12 0 -18 5 -15 10 4 6 10 8 15 5 5 -3 11 -1 15 5
7 11 -5 13 -29 4 -21 -8 -21 -34 0 -34 11 0 14 -6 8 -22 -9 -30 -20 -36 -74
-44 -140 -19 -111 -22 218 -23 l352 -1 0 31 c0 16 4 28 9 25 4 -3 6 -17 3 -31
l-4 -25 235 0 c226 0 235 1 240 20 3 11 11 18 19 16 7 -3 56 -7 108 -10 53 -3
96 -10 98 -15 2 -7 87 -11 253 -11 l249 0 -3 23 c-2 19 3 22 33 25 19 1 123
11 230 23 535 55 755 83 930 118 138 27 88 25 -75 -3 -127 -22 -370 -52 -745
-91 -202 -21 -280 -25 -330 -17 -41 6 -45 10 -48 37 -2 16 1 47 8 67 9 31 15
38 38 39 l27 1 -28 10 c-21 7 -27 15 -22 27 4 9 10 24 12 33 3 10 13 18 22 18
12 0 13 2 3 9 -11 6 -7 16 17 43 37 42 37 46 11 50 -38 6 -26 23 20 29 25 3
37 7 27 7 -37 4 -3 23 91 51 53 17 127 35 164 41 67 12 77 21 78 68 0 16 -61
16 -184 -3 -55 -8 -119 -15 -143 -15 -24 0 -42 -4 -39 -9 6 -9 -64 -24 -72
-16 -6 6 -3 162 5 205 4 24 2 32 -5 25 -6 -6 -12 -71 -14 -148 l-3 -138 -25 6
c-14 4 -35 7 -46 8 -21 2 -22 6 -18 87 2 47 6 108 8 135 2 28 0 75 -4 105 l-7
55 -2 -75 c-3 -163 -14 -329 -23 -324 -4 3 -8 17 -8 31 0 22 -3 24 -25 19
l-24 -6 3 422 4 423 -13 -440 c-7 -242 -13 -457 -14 -478 -1 -48 -21 -40 -21
8 0 26 -3 33 -15 29 -11 -5 -15 1 -15 19 0 14 5 29 10 32 6 4 10 43 9 90 -1
45 5 99 12 118 9 27 10 39 1 50 -8 9 -8 17 -1 24 7 7 6 15 -3 24 -15 15 -15
11 17 719 12 253 21 374 30 393 8 15 10 25 5 22 -4 -3 -11 3 -15 12 -3 10 -1
19 4 21 14 5 14 62 1 62 -5 0 -10 -7 -10 -15 0 -9 -7 -18 -15 -21 -12 -5 -13
-10 -4 -20 6 -8 11 -45 10 -86 -1 -90 -59 -1262 -65 -1338 -3 -30 -5 -99 -6
-152 0 -82 -2 -96 -15 -92 -10 4 -15 20 -15 50 0 43 -11 56 -27 32 -21 -33
-19 386 7 1377 7 237 11 441 11 455 -1 16 7 30 22 39 22 14 22 14 3 -8 -15
-17 -17 -24 -7 -34 9 -9 14 -9 21 3 9 13 10 13 10 0 0 -17 40 -56 53 -52 4 1
7 -2 7 -7 0 -8 85 -27 103 -23 4 1 7 -1 7 -5 0 -5 12 -9 27 -10 15 0 29 -6 31
-12 2 -6 10 -11 18 -11 9 0 13 4 10 9 -8 13 38 0 46 -13 5 -8 11 -7 19 1 9 9
17 8 34 -3 20 -13 25 -13 38 1 13 12 21 13 44 4 15 -6 37 -12 48 -14 11 -1 29
-6 39 -11 13 -5 17 -4 13 3 -4 6 0 13 7 16 8 3 16 18 18 34 l3 28 15 -30 c14
-27 20 -30 66 -31 29 -1 57 -5 63 -9 7 -3 19 -1 27 6 9 8 18 9 22 3 10 -13 35
-17 27 -4 -4 6 4 10 18 10 28 0 54 24 37 35 -18 11 -11 23 10 18 14 -4 20 0
20 11 0 10 4 15 9 11 16 -9 24 15 11 30 -10 12 -9 15 4 15 10 0 15 -4 12 -8
-2 -4 -1 -14 5 -22 5 -9 9 -10 9 -3 0 6 8 9 18 6 24 -6 80 53 326 337 338 390
657 796 945 1204 31 43 117 160 191 259 180 242 335 461 533 757 189 284 276
430 435 735 l115 220 3 100 c2 55 9 224 14 375 14 352 20 1715 9 2010 -4 124
-12 396 -18 605 -14 494 -30 925 -36 997 l-5 56 69 51 c37 28 79 56 92 64 13
7 44 25 68 41 50 32 224 116 240 116 25 0 7 -43 -55 -136 -88 -132 -157 -269
-149 -297 5 -17 4 -19 -4 -7 -20 28 -15 -15 41 -345 11 -66 23 -149 28 -185
25 -203 66 -419 97 -520 20 -63 37 -128 40 -145 9 -66 13 -74 33 -72 16 1 20
8 20 34 0 18 4 33 8 33 4 0 5 -37 1 -82 -4 -46 -9 -137 -12 -203 -5 -106 -4
-111 3 -40 12 101 47 494 66 730 8 99 19 224 24 279 6 54 10 121 11 150 0 38
3 46 9 31 10 -23 10 -24 15 35 3 37 2 40 -4 15 -8 -29 -9 -29 -10 -4 0 14 13
183 30 375 17 192 32 374 32 404 2 102 -140 766 -213 1000 -27 85 -74 245
-104 355 -31 110 -72 252 -91 315 -19 63 -35 125 -35 138 0 12 14 51 31 85 35
69 37 72 43 66 3 -3 39 -137 81 -299 42 -162 105 -398 140 -525 69 -245 131
-531 196 -895 67 -380 123 -826 143 -1160 9 -140 19 -283 22 -316 l5 -62 46
45 c25 24 60 51 77 60 17 9 36 23 43 32 8 10 12 11 13 4 0 -21 25 -4 38 27 16
35 47 40 55 8 4 -12 4 -24 1 -27 -3 -3 -7 5 -11 17 -7 27 -12 27 -29 5 -22
-29 -16 -36 26 -30 30 4 40 2 40 -9 0 -8 5 -14 10 -14 11 0 11 11 11 168 0
103 -5 127 -22 117 -5 -4 -9 -1 -9 4 0 6 10 11 23 11 22 0 22 -2 26 -153 l3
-152 54 -48 c84 -75 169 -226 220 -389 10 -32 21 -58 26 -58 4 0 8 3 8 8 0 7
69 395 126 707 14 77 27 156 30 175 l4 35 -10 -35 c-19 -67 -21 -75 -29 -125
l-9 -50 -1 64 c-2 98 22 355 29 306 5 -40 5 -40 28 40 13 44 35 116 49 160 13
44 36 140 49 214 36 191 99 475 139 622 39 141 203 514 236 534 4 3 17 -25 28
-63 38 -126 38 -120 -19 -228 -142 -268 -141 -266 -153 -355 -6 -46 -11 -110
-11 -141 0 -35 -4 -52 -9 -45 -5 7 -7 1 -4 -16 2 -16 1 -45 -4 -65 -17 -71
-60 -338 -80 -486 -15 -119 -16 -153 -7 -165 7 -9 45 -52 84 -96 118 -133 254
-307 261 -334 6 -25 2 -83 -41 -581 -78 -894 -135 -1883 -136 -2345 0 -180 -2
-170 111 -530 137 -432 274 -828 299 -860 5 -5 33 -73 64 -150 87 -219 342
-674 649 -1155 460 -722 582 -904 563 -847 -8 26 22 34 40 11 9 -11 13 -13 9
-6 -3 6 -4 12 -2 12 15 0 75 -135 65 -145 -2 -2 -16 2 -30 10 -23 11 -18 1 30
-65 31 -43 60 -76 64 -74 4 3 5 -1 3 -9 -3 -7 4 -22 15 -32 17 -16 20 -16 15
-2 -6 14 -3 14 19 4 14 -7 28 -19 31 -28 3 -9 12 -16 21 -16 8 0 13 5 10 12
-3 8 10 9 45 5 32 -4 49 -3 49 4 0 6 20 12 45 13 27 1 45 -3 45 -9 0 -6 3 -8
7 -5 3 4 12 2 20 -4 10 -9 13 -8 13 1 0 7 6 10 14 7 8 -3 17 -1 20 6 2 7 5 3
6 -8 1 -19 1 -19 11 -2 9 15 12 16 25 2 9 -8 22 -15 29 -15 8 0 17 -9 20 -20
7 -22 25 -27 25 -7 1 7 6 5 14 -5 12 -16 15 -15 46 12 37 33 46 36 53 18 3 -8
6 -6 6 4 1 16 4 16 41 3 22 -8 40 -10 40 -5 0 6 -4 10 -10 10 -5 0 -10 3 -10
8 0 9 73 10 80 1 3 -4 16 -2 30 4 14 6 34 12 45 13 55 8 85 17 86 25 1 5 2 13
3 18 2 18 16 24 16 8 0 -21 29 -22 37 -1 3 8 11 13 18 10 7 -2 12 1 12 7 0 7
1 26 2 42 1 25 3 27 12 13 15 -27 38 -22 34 7 -1 16 3 25 11 25 19 0 17 15 -3
31 -15 12 -16 12 -10 -4 5 -12 3 -17 -5 -15 -20 7 -19 23 2 48 l20 24 -2 -25
c-2 -16 2 -24 12 -24 9 0 16 10 17 25 l2 25 -8 -25 -7 -25 -6 30 c-8 38 -2 46
26 39 17 -4 25 0 30 13 3 10 9 24 12 31 3 7 -1 12 -11 12 -13 0 -14 4 -5 20
15 27 41 39 102 46 29 3 59 11 67 17 8 7 16 11 18 10 1 -2 6 -2 11 -2 4 1 14
1 22 0 8 -1 29 10 45 24 26 22 27 24 5 13 -14 -7 -28 -17 -31 -22 -4 -4 -15
-4 -25 2 -11 5 -25 7 -31 5 -7 -3 -13 1 -13 7 0 8 10 9 32 5 30 -7 31 -6 15 9
-22 23 -22 24 11 19 25 -4 26 -3 9 11 -13 10 -17 21 -12 37 8 24 -14 46 -27
26 -6 -9 -11 -8 -18 3 -9 13 -11 13 -21 0 -9 -13 -10 -12 -5 2 3 10 1 20 -5
23 -5 4 -6 11 -3 17 4 6 2 8 -3 5 -6 -4 -21 2 -33 13 -27 24 -40 25 -40 6 0
-11 -5 -12 -24 -3 -27 13 -25 30 1 20 12 -5 15 -2 10 10 -5 14 -2 14 28 1 46
-19 48 -18 29 11 -12 18 -13 25 -4 25 10 0 10 3 0 15 -8 9 -8 15 -2 15 6 0 12
12 14 27 3 27 5 28 66 28 46 0 61 3 57 13 -3 8 6 12 29 12 22 0 36 -6 40 -16
4 -9 9 -14 12 -11 12 12 -31 52 -53 49 -31 -5 -63 15 -63 38 0 12 -7 20 -16
20 -29 0 -8 25 27 31 23 4 27 7 11 8 -27 1 -25 24 2 29 23 5 56 38 56 57 0 17
-11 20 -25 6 -6 -5 -21 -11 -35 -13 -14 -1 -25 -8 -25 -15 0 -6 -3 -15 -7 -19
-5 -4 -8 0 -8 9 0 10 -6 18 -12 18 -7 1 -17 2 -23 4 -5 1 -14 3 -20 3 -5 1 8
18 28 37 34 32 48 40 70 36 4 0 7 7 7 18 0 10 10 25 23 33 20 13 24 13 39 -2
10 -9 18 -22 18 -28 0 -7 5 -12 11 -12 6 0 9 -9 6 -20 -6 -22 13 -80 25 -80 4
0 8 -7 8 -15 0 -10 10 -15 28 -15 15 0 35 -7 45 -15 11 -7 25 -11 33 -8 8 3
20 0 28 -6 7 -6 16 -8 19 -4 4 3 7 1 7 -5 0 -6 10 -14 22 -18 l23 -7 -25 -9
-24 -9 24 -13 c25 -13 50 -11 50 4 0 5 9 6 20 3 16 -4 19 -2 14 11 -4 11 -1
16 11 16 9 0 13 5 10 11 -4 6 2 5 13 -2 16 -10 18 -16 10 -26 -9 -11 -6 -12
17 -3 15 6 37 7 49 3 11 -4 27 -6 33 -5 8 2 10 -3 7 -13 -3 -8 -1 -15 5 -15 6
0 14 0 19 0 4 0 7 6 7 13 0 6 5 18 12 24 6 7 13 17 15 23 2 6 20 11 41 12 21
1 33 4 27 8 -7 4 -8 15 -2 30 6 15 11 19 16 12 4 -7 12 -12 17 -12 6 0 7 4 4
10 -3 5 1 20 9 32 12 17 16 19 16 6 0 -9 -4 -18 -10 -20 -6 -2 -6 -8 0 -18 8
-13 10 -12 10 3 0 9 8 17 18 17 14 0 15 2 2 10 -14 9 -7 14 13 11 5 -1 6 3 3
8 -3 5 2 12 11 15 15 6 15 8 3 16 -13 8 -12 10 3 10 10 0 22 12 27 26 6 14 14
23 19 19 6 -3 13 1 18 8 4 8 19 20 32 27 21 11 23 10 18 -4 -4 -10 -1 -16 8
-16 9 0 12 6 8 16 -5 14 -1 16 20 12 16 -3 31 0 38 8 6 7 18 10 27 7 12 -3 13
-2 4 4 -10 7 -8 14 6 31 11 12 25 22 31 22 17 0 36 22 36 40 0 8 18 19 45 26
25 7 39 12 31 13 -8 1 -11 4 -7 8 3 4 -5 12 -19 17 l-25 11 26 12 c22 10 25
10 20 -4 -6 -13 -4 -14 9 -3 9 7 14 19 11 27 -3 8 0 13 7 12 39 -5 44 1 40 41
-4 32 -2 40 11 40 9 0 16 7 16 15 0 14 33 38 42 30 3 -3 5 2 5 10 0 9 -6 14
-13 11 -8 -3 -11 0 -8 8 3 8 13 13 22 12 10 -1 21 12 29 34 6 19 12 29 12 22
1 -10 4 -10 16 2 8 8 15 19 15 25 0 6 10 10 23 8 17 -1 22 3 21 21 -1 24 11
30 19 10 4 -10 7 -10 18 0 12 11 12 14 -1 22 -11 7 -9 11 13 19 31 12 32 33 2
43 -17 5 -15 6 8 7 15 1 27 -4 27 -10 0 -5 5 -7 10 -4 6 4 8 11 5 16 -4 5 -1
9 4 9 6 0 11 7 11 15 0 8 -5 15 -11 15 -5 0 -8 -4 -5 -9 3 -5 0 -11 -8 -14
-10 -4 -12 0 -9 14 3 10 13 19 23 19 10 0 20 6 23 13 3 8 7 7 12 -5 6 -15 8
-15 25 2 17 17 18 22 5 47 -8 15 -12 29 -10 31 7 7 25 -9 25 -24 0 -21 17 -17
23 6 3 11 2 20 -2 20 -4 0 -7 15 -8 32 -2 27 0 29 7 13 8 -19 9 -19 9 -1 1 11
4 17 7 13 3 -3 15 3 26 13 15 14 26 16 43 10 20 -8 22 -6 17 12 -4 16 -1 19
14 14 15 -5 19 0 21 21 1 26 0 27 -13 8 -8 -10 -14 -14 -14 -9 0 16 40 55 50
49 5 -3 11 -1 15 5 4 6 -5 10 -20 10 -24 0 -25 1 -11 16 9 8 16 22 16 30 0 8
4 13 9 10 5 -3 7 -16 5 -29 -5 -22 -5 -22 5 0 5 12 19 24 30 28 12 3 19 11 16
16 -10 16 6 33 17 18 8 -11 9 -11 5 1 -3 10 -14 14 -31 12 -16 -2 -26 2 -26
10 0 9 -3 9 -11 -2 -9 -13 -10 -13 -6 0 2 8 10 14 17 12 7 -2 22 5 34 15 14
12 17 13 9 2 -11 -13 -6 -15 36 -16 43 0 48 2 43 19 -2 11 -8 16 -11 11 -9
-14 -41 -24 -41 -13 0 6 5 10 11 10 5 0 15 13 20 29 10 29 43 38 45 13 3 -23
4 -23 20 -7 9 9 24 13 35 10 19 -6 19 84 19 4639 l0 4646 -6310 0 -6310 0 0
-5818z m10371 -4722 c14 0 19 -7 19 -30 0 -32 -7 -35 -65 -31 l-30 2 23 -16
c27 -20 29 -35 3 -28 -10 3 -22 0 -25 -6 -8 -12 32 -24 65 -19 19 2 24 9 24
30 -1 14 3 24 7 22 4 -3 8 -12 8 -20 0 -9 6 -14 13 -11 6 2 12 12 12 22 0 13
9 20 29 22 35 5 48 -11 40 -53 -4 -21 -1 -34 11 -44 16 -13 16 -15 -2 -21 -14
-6 -11 -9 17 -15 l35 -8 -33 -8 c-19 -5 -39 -5 -50 1 -11 6 -28 5 -48 -4 -37
-15 -149 -14 -165 2 -8 8 -6 17 10 34 27 29 26 31 -4 46 -28 12 -30 10 -15
-17 7 -14 6 -20 -7 -25 -10 -3 -19 -1 -21 4 -2 6 -8 8 -14 5 -6 -4 -8 1 -5 12
3 11 9 34 12 52 4 21 12 32 20 29 7 -3 18 5 25 19 12 22 46 32 84 25 4 -1 6
11 3 26 -4 15 -4 22 -1 16 3 -7 14 -13 25 -13z"/>
<path d="M6304 8892 c-22 -11 -57 -34 -77 -52 -36 -31 -37 -34 -37 -99 0 -86
9 -99 41 -65 66 71 162 98 248 69 96 -31 210 -163 276 -318 15 -37 31 -64 35
-62 4 3 11 29 14 59 6 47 3 64 -24 128 -64 151 -170 286 -261 333 -52 27 -164
31 -215 7z"/>
<path d="M6415 8655 c-27 -26 -31 -46 -15 -75 7 -13 7 -21 0 -25 -5 -3 -10
-26 -10 -51 0 -35 3 -44 18 -44 14 0 15 2 2 10 -27 17 -2 21 51 7 41 -10 54
-18 54 -32 0 -10 6 -20 12 -22 17 -6 14 163 -4 199 -14 29 -49 58 -71 58 -7 0
-24 -11 -37 -25z"/>
<path d="M6249 8619 c-16 -17 -30 -39 -31 -48 -4 -44 -2 -188 2 -182 14 20
102 71 111 65 9 -5 10 10 7 52 -3 32 -2 68 2 79 4 11 4 30 -1 43 -12 33 -54
29 -90 -9z"/>
<path d="M6594 8555 c-4 -9 -4 -31 -1 -50 3 -19 2 -35 -4 -35 -5 0 -9 -15 -9
-32 0 -25 14 -50 55 -101 30 -37 55 -72 55 -77 0 -6 5 -10 10 -10 6 0 10 15
10 33 0 24 -3 28 -10 17 -14 -22 -13 5 2 47 10 26 9 43 0 81 -23 84 -93 167
-108 127z"/>
<path d="M7101 7022 c-7 -26 -21 -74 -31 -107 -10 -33 -22 -76 -25 -95 -4 -19
-9 -43 -11 -52 -4 -12 -1 -16 8 -13 8 3 14 13 15 23 2 27 32 154 38 160 12 12
11 -7 -2 -68 -8 -36 -15 -112 -17 -170 -3 -107 -17 -182 -35 -188 -5 -2 -8 -9
-5 -16 3 -7 -2 -28 -10 -47 -12 -26 -16 -29 -17 -14 -3 29 -2 34 14 93 14 51
9 71 -15 56 -8 -5 -9 8 -4 51 9 80 -6 60 -22 -28 -22 -121 -25 -154 -12 -137
9 11 10 4 5 -30 -10 -76 -27 -140 -36 -140 -5 0 -6 -13 -3 -29 4 -20 1 -30 -9
-34 -13 -5 -15 1 -10 30 4 26 3 34 -5 29 -7 -4 -12 -27 -12 -52 0 -24 -4 -44
-8 -44 -5 0 -9 -6 -9 -12 0 -7 -8 -49 -16 -93 -9 -44 -18 -91 -20 -104 -5 -34
-25 -38 -36 -8 -6 16 -5 49 5 98 8 41 14 79 13 84 -1 19 -27 -61 -33 -105 -14
-91 -110 -542 -143 -675 -8 -33 -15 -65 -16 -72 0 -7 -5 -10 -10 -6 -5 3 -6
34 -3 72 6 73 -7 57 -18 -22 -4 -26 -12 -45 -17 -42 -5 4 -7 11 -3 16 3 5 2 8
-3 7 -21 -6 -63 36 -70 70 -8 45 -7 128 3 161 5 16 4 22 -3 18 -14 -9 -26 72
-17 118 4 23 2 35 -5 35 -6 0 -11 -7 -11 -17 0 -9 -2 -14 -4 -12 -5 4 107 580
119 620 4 13 1 19 -8 19 -11 0 -19 -21 -28 -70 -13 -75 -23 -93 -34 -61 -10
32 -63 71 -96 71 -29 0 -68 -29 -70 -52 -2 -32 -17 43 -18 92 -1 30 -6 62 -11
70 -13 20 -13 26 5 -214 26 -349 45 -655 45 -712 0 -40 -4 -54 -14 -54 -33 0
-221 -213 -324 -367 -13 -19 -29 -36 -36 -39 -8 -3 -17 -15 -21 -27 -9 -25
-25 251 -22 374 1 43 -1 79 -5 79 -5 0 -8 17 -8 37 0 20 -3 33 -7 29 -5 -4 -9
-56 -10 -114 0 -59 -3 -118 -5 -132 -2 -18 1 -24 11 -22 12 3 12 0 2 -12 -7
-8 -22 -34 -34 -57 -12 -24 -28 -45 -35 -47 -11 -3 -12 0 -3 17 7 12 9 36 6
55 -4 20 -2 36 4 40 6 4 10 17 10 29 -1 18 -2 19 -6 4 -4 -16 -7 -15 -19 8
-10 20 -11 31 -4 40 7 9 8 15 1 19 -15 9 -5 134 13 161 9 14 11 27 5 36 -7 11
-9 10 -9 -6 0 -17 -2 -17 -10 -5 -5 8 -10 38 -10 67 0 28 -4 55 -10 58 -6 4
-10 -21 -10 -67 0 -50 -5 -81 -15 -94 -8 -10 -15 -29 -15 -42 0 -15 -4 -21
-12 -16 -8 5 -9 0 -6 -14 4 -12 2 -22 -2 -22 -5 0 -11 14 -15 30 -4 17 -10 28
-15 25 -4 -3 -6 4 -3 15 7 27 22 25 32 -2 6 -16 8 -2 6 42 -2 36 -4 76 -4 90
-1 15 -4 20 -9 13 -4 -6 -6 54 -5 133 1 80 5 149 8 154 6 10 -4 40 -15 40 -5
0 -6 -10 -3 -22 3 -15 2 -19 -4 -11 -5 8 -8 -39 -8 -115 2 -147 -8 -210 -19
-122 -8 70 -3 270 7 263 4 -2 7 1 7 6 0 6 -6 11 -12 11 -15 0 -12 108 4 127 5
7 12 27 14 45 7 49 13 60 26 52 8 -5 9 -2 5 9 -3 9 -3 27 2 39 8 21 10 17 24
-27 9 -27 16 -40 16 -28 1 12 5 23 11 25 5 2 7 19 4 40 -4 21 -10 35 -15 32
-5 -3 -9 4 -9 16 0 14 4 19 13 14 9 -6 9 -5 0 7 -9 11 -10 25 -3 50 6 18 10
38 9 44 0 12 -23 -49 -74 -195 -20 -58 -56 -161 -80 -230 -24 -69 -74 -213
-110 -320 -37 -107 -73 -208 -80 -225 -7 -16 -27 -64 -45 -105 -61 -140 -200
-471 -200 -475 0 -3 -63 -143 -141 -312 -77 -170 -168 -371 -201 -448 -33 -77
-93 -205 -133 -285 -65 -128 -230 -475 -272 -570 -9 -19 -96 -199 -193 -400
-210 -432 -286 -590 -311 -647 -9 -23 -55 -110 -100 -195 -122 -227 -166 -310
-235 -443 -72 -139 -99 -188 -374 -668 -237 -413 -230 -401 -235 -428 -4 -21
-3 -21 223 -15 583 16 682 21 679 40 -2 11 20 11 86 0 25 -4 37 -2 37 6 0 7
-8 9 -19 5 -11 -3 -22 -1 -26 5 -4 7 -27 10 -53 9 -38 -3 -48 0 -50 14 -3 13
2 16 25 12 74 -14 153 -21 160 -15 4 4 27 10 50 13 32 4 46 1 62 -14 11 -10
21 -14 23 -9 2 6 15 7 35 1 22 -7 33 -6 36 2 3 9 13 9 40 0 26 -8 60 -8 114
-1 43 5 122 8 176 6 58 -2 99 1 101 7 3 6 5 4 5 -2 1 -15 81 -18 81 -3 0 5 7
7 15 4 8 -4 15 -2 15 4 0 9 102 28 195 36 358 30 457 42 467 59 5 8 11 6 21
-7 22 -30 38 -11 31 37 -4 23 -11 50 -16 60 -10 19 -38 23 -54 7 -11 -11 -54
-2 -54 11 0 5 -11 9 -25 9 -14 0 -25 5 -25 10 0 15 -30 12 -30 -2 -1 -9 -4 -8
-13 2 -7 8 -23 16 -37 18 -13 1 -35 12 -47 24 -13 12 -23 18 -23 13 0 -4 -8
-1 -17 7 -22 19 -50 19 -57 1 -3 -7 -16 -13 -28 -13 -30 0 -54 46 -35 69 9 12
9 13 -1 7 -18 -10 -28 23 -13 45 8 14 8 19 0 19 -8 0 -10 15 -5 47 6 43 5 45
-9 28 -8 -11 -15 -33 -15 -48 0 -19 -4 -26 -12 -21 -8 5 -9 0 -6 -14 4 -12 2
-22 -4 -22 -5 0 -7 -9 -3 -19 3 -11 -1 -26 -10 -35 -15 -15 -15 -17 -1 -22 9
-3 16 -12 16 -20 0 -12 -8 -13 -85 -5 -18 2 -15 39 3 44 15 4 15 5 -1 6 -10 0
-15 6 -12 11 4 6 3 9 -2 8 -4 -2 -8 0 -8 3 0 4 -9 16 -19 28 -11 12 -15 21
-11 21 5 0 4 5 -3 12 -7 7 -12 23 -12 38 -1 24 -1 24 -15 6 -11 -14 -12 -23
-4 -33 9 -10 8 -13 -5 -13 -9 0 -16 -7 -16 -15 0 -9 -15 -22 -32 -30 -29 -12
-34 -11 -46 6 -7 10 -11 23 -7 28 3 5 1 12 -3 15 -5 3 -7 17 -4 32 4 20 1 25
-9 22 -8 -3 -15 -14 -17 -26 -2 -12 -7 -22 -12 -22 -4 0 -6 -9 -3 -19 3 -11 1
-27 -5 -37 -8 -15 -11 -12 -23 19 -7 21 -19 37 -27 37 -7 0 -11 -4 -7 -9 3 -5
0 -13 -6 -16 -5 -4 -8 -13 -5 -21 6 -17 -15 -19 -31 -3 -8 8 -13 5 -18 -10 -4
-14 -15 -21 -30 -21 -13 0 -26 -4 -29 -9 -4 -5 -22 -5 -43 0 -48 10 -155 1
-166 -14 -5 -9 -10 -8 -17 4 -6 10 -22 14 -52 13 -24 -1 -43 -3 -43 -4 0 -1
-19 -4 -43 -6 -46 -4 -72 11 -72 40 0 25 -12 19 -47 -21 -18 -21 -30 -30 -27
-21 6 19 -10 25 -21 8 -4 -7 -13 -7 -24 0 -12 6 -22 5 -29 -2 -7 -7 -14 -10
-16 -7 -5 4 16 40 159 274 297 485 441 733 630 1085 75 139 114 204 102 169
-5 -14 4 -16 51 -17 42 0 59 -5 69 -18 12 -16 13 -16 13 -1 0 17 13 20 73 19
15 0 27 4 27 9 0 14 48 11 53 -3 4 -10 6 -10 6 0 1 6 10 12 20 12 11 0 22 4
26 10 9 14 34 0 28 -16 -4 -12 0 -13 23 -4 20 8 30 8 32 1 2 -7 11 -6 25 4 26
18 61 20 51 4 -5 -8 1 -10 19 -5 15 3 29 1 33 -6 4 -6 3 -8 -4 -4 -6 3 -17 -1
-25 -9 -12 -11 -17 -12 -20 -2 -4 8 -6 6 -6 -4 -1 -9 9 -21 22 -27 12 -6 16
-11 9 -11 -7 -1 -11 -5 -7 -10 3 -6 17 -6 35 0 26 9 29 16 32 57 2 26 7 -38
11 -143 15 -352 43 -721 71 -950 8 -60 20 -156 27 -213 7 -56 15 -99 19 -95 6
7 22 85 36 184 3 19 14 70 25 114 10 44 28 124 38 177 11 54 28 110 39 125 35
52 87 212 112 348 4 22 20 92 34 155 26 114 80 363 111 515 8 44 27 143 40
220 13 77 29 163 35 190 13 63 91 507 120 685 13 74 26 139 31 145 5 5 9 33 9
63 0 29 9 113 21 185 11 73 33 221 49 330 28 196 45 267 35 151 -22 -267 -37
-436 -46 -534 -6 -63 -12 -153 -15 -200 -2 -47 -11 -164 -19 -260 -30 -370
-59 -947 -70 -1395 -6 -241 -13 -439 -26 -685 -5 -107 -12 -253 -14 -325 -3
-71 -7 -176 -10 -232 -4 -95 -3 -102 15 -108 12 -4 20 -15 20 -28 0 -18 -6
-22 -32 -22 l-33 0 -3 -58 c-2 -34 2 -65 8 -72 7 -8 9 -19 5 -25 -5 -9 105
-17 140 -10 5 1 24 -1 42 -5 25 -4 33 -11 36 -33 l4 -27 2 28 c1 18 7 27 19
28 64 3 255 -1 262 -6 6 -4 10 -1 10 6 0 13 99 7 122 -7 7 -5 20 -9 28 -9 8 0
14 -6 12 -13 -2 -10 2 -10 17 -2 28 14 44 12 37 -5 -3 -8 -1 -15 4 -15 6 0 10
7 10 15 0 11 11 13 53 9 28 -3 64 -5 80 -5 15 0 27 -5 27 -12 0 -8 3 -8 9 2
10 16 131 6 131 -12 0 -7 4 -7 12 1 7 7 28 12 48 12 37 0 37 0 37 44 0 38 -2
42 -14 30 -23 -22 -60 -17 -68 9 -6 19 -8 19 -12 4 -4 -14 -16 -17 -68 -17
l-64 0 -4 33 -4 32 -1 -32 c-2 -32 -3 -33 -47 -33 -40 0 -45 3 -46 23 l0 22
-9 -22 c-7 -17 -18 -23 -39 -23 l-29 0 35 138 c90 356 185 929 230 1385 9 99
19 173 22 165 2 -7 11 -18 20 -24 12 -9 18 -8 29 5 9 11 11 12 6 1 -7 -13 -5
-13 9 -1 9 7 17 19 17 25 0 6 -4 5 -9 -3 -5 -7 -11 -9 -14 -4 -3 5 3 15 15 22
11 7 17 8 14 2 -4 -5 2 -9 13 -8 14 1 22 11 27 30 5 22 8 26 15 16 8 -11 14
-9 31 11 21 24 21 24 15 2 -7 -30 11 -28 51 8 30 28 43 48 23 36 -5 -4 -8 2
-6 11 1 10 8 17 14 16 12 -3 34 33 27 45 -2 4 11 8 30 8 19 0 34 -4 34 -8 0
-5 -9 -6 -21 -3 -20 7 -20 6 -3 -14 14 -15 21 -18 31 -9 10 8 18 6 33 -7 11
-10 20 -23 20 -29 0 -13 135 -15 147 -2 4 5 3 6 -4 3 -7 -5 -9 0 -6 13 3 12 7
19 8 18 2 -2 64 -129 139 -283 75 -154 183 -372 242 -485 59 -113 146 -282
194 -375 89 -173 228 -424 315 -570 39 -66 47 -88 46 -124 -2 -54 -11 -69 -11
-18 0 39 -2 40 -57 37 -26 -1 -33 3 -34 17 0 12 -4 9 -11 -9 l-10 -28 -116 -2
-117 -2 110 -6 c61 -3 104 -7 97 -8 -10 -1 -13 -17 -10 -61 1 -32 -1 -62 -7
-67 -13 -12 -145 -12 -145 -1 0 5 -7 4 -15 -3 -8 -6 -20 -8 -26 -4 -7 4 -36 6
-66 5 -45 -2 -53 1 -54 16 0 14 -2 15 -6 3 -10 -25 -21 -27 -110 -23 -52 3
-83 1 -79 -5 3 -5 77 -13 163 -16 87 -4 259 -14 382 -22 273 -17 1127 -20
1133 -3 2 6 -73 162 -166 347 -93 185 -243 497 -333 692 -155 335 -511 1163
-566 1315 -33 92 -109 292 -207 540 -212 538 -494 1300 -665 1800 -63 182
-123 355 -134 386 -11 31 -45 141 -75 245 -30 104 -65 218 -77 254 -30 92 -30
91 -123 460 -59 233 -87 328 -91 313 -11 -35 -28 -28 -21 8 3 17 6 37 7 43 0
6 5 2 10 -9 8 -17 9 -17 4 5 -2 14 -5 36 -6 50 0 15 -10 -6 -25 -50 l-24 -75
2 65 c1 48 7 71 21 87 18 20 18 25 3 103 -8 46 -17 84 -19 86 -1 2 -9 -18 -16
-44z m2102 -6191 c65 -103 117 -190 117 -192 0 -2 -25 -6 -56 -7 -113 -6 -244
-32 -244 -48 0 -7 11 -11 25 -10 13 2 22 -1 19 -5 -3 -5 -16 -9 -29 -9 -20 0
-24 7 -34 63 -14 83 -14 282 0 310 13 25 70 87 79 87 4 0 59 -85 123 -189z
m-2634 33 c48 -43 75 -114 76 -201 0 -34 -2 -64 -5 -66 -3 -3 -25 -1 -50 4
-25 5 -66 11 -92 14 l-48 6 0 70 c0 39 4 69 10 69 6 0 10 -4 10 -10 0 -5 5
-10 12 -10 6 0 8 3 5 6 -3 4 -2 15 4 25 11 21 -5 28 -17 8 -5 -8 -10 -6 -16 5
-9 16 -11 16 -24 -1 -13 -17 -13 -17 -14 1 0 14 -3 17 -11 9 -11 -11 7 -53 23
-53 5 0 8 -27 8 -61 l0 -60 -37 3 -38 4 -3 131 -3 132 28 4 c15 2 54 5 85 6
53 1 61 -2 97 -35z m2861 -399 c7 -9 10 -19 6 -23 -11 -10 -407 -7 -566 5 -74
5 -124 11 -110 13 74 8 279 17 456 18 170 2 204 0 214 -13z"/>
<path d="M6106 2623 c-17 -372 -26 -553 -31 -618 -2 -38 -7 -140 -11 -225 -8
-206 -42 -682 -50 -703 -3 -9 -12 -17 -19 -17 -8 0 -16 -4 -19 -9 -4 -5 4 -7
15 -4 21 6 21 3 17 -55 -2 -34 -6 -64 -9 -66 -3 -3 -22 -3 -43 1 -27 4 -34 8
-24 15 9 7 6 8 -10 5 -18 -4 -22 -2 -20 11 3 11 12 16 28 14 18 -1 21 1 11 7
-11 7 -10 10 4 18 12 7 14 12 6 18 -9 5 -9 10 -1 20 9 11 2 10 -29 -2 -22 -9
-43 -24 -46 -34 -4 -11 -16 -19 -29 -19 -21 0 -72 -29 -52 -30 6 0 1 -7 -10
-16 -10 -8 -12 -12 -4 -8 8 4 24 14 35 23 19 16 19 16 1 -12 -22 -36 -16 -43
13 -16 12 11 26 19 32 17 5 -2 -13 -21 -41 -42 -27 -21 -50 -42 -50 -46 0 -5
-3 -17 -6 -27 -4 -10 6 -1 22 19 51 66 64 71 165 63 l89 -7 0 78 c0 44 3 108
5 144 3 36 10 171 15 300 9 209 32 679 44 925 12 227 18 425 14 425 -3 0 -8
-66 -12 -147z"/>
<path d="M10729 1373 c4 -277 -6 -500 -22 -484 -19 19 -29 12 -23 -15 5 -17 3
-23 -4 -19 -5 3 -10 -1 -10 -9 0 -9 5 -16 10 -16 6 0 10 -34 10 -81 0 -51 -4
-78 -10 -74 -5 3 -10 -1 -10 -10 0 -9 5 -13 10 -10 6 3 10 1 10 -4 0 -6 -4
-11 -10 -11 -6 0 -10 -45 -10 -115 0 -65 -4 -115 -9 -115 -6 0 -9 175 -7 458
2 251 1 359 -1 240 -2 -136 -7 -218 -13 -218 -6 0 -9 -19 -6 -45 2 -27 0 -46
-8 -48 -8 -3 -8 -8 2 -18 6 -7 12 -32 12 -55 0 -41 -1 -43 -32 -46 l-33 -3 -3
-89 c-3 -66 0 -91 10 -97 9 -6 9 -9 1 -9 -6 0 -14 -10 -16 -23 -2 -12 -5 173
-6 412 0 239 -3 432 -6 430 -2 -3 -5 -156 -5 -340 0 -184 -3 -366 -6 -405 -6
-70 -6 -70 -34 -66 -21 3 -29 -1 -33 -15 -3 -10 -6 34 -7 97 -2 63 -6 228 -10
365 -7 238 -7 233 -5 -104 l3 -353 -34 5 c-20 3 -34 2 -34 -4 0 -6 6 -7 13 -3
9 5 9 4 0 -6 -22 -23 -33 1 -34 73 0 40 -4 95 -9 122 -7 47 -10 47 -14 0 -1
-15 -7 -19 -23 -17 -19 3 -22 -1 -21 -37 0 -46 14 -53 28 -16 17 45 30 27 30
-39 l0 -64 -32 3 c-18 2 -87 9 -153 15 -66 5 -139 13 -163 16 l-43 5 3 -38 c2
-21 8 -38 13 -39 107 -8 272 -43 254 -55 -9 -6 3 -9 36 -10 35 0 44 -3 30 -8
-17 -7 -15 -10 18 -20 20 -7 37 -16 37 -21 0 -4 10 -10 23 -14 12 -3 39 -22
60 -41 31 -28 36 -39 27 -49 -7 -10 -8 -16 0 -21 5 -3 10 -1 10 5 0 7 7 5 16
-4 18 -19 -3 -17 226 -19 103 0 185 -4 182 -8 -2 -5 16 -27 41 -50 25 -23 62
-64 81 -91 l36 -48 779 0 779 0 0 240 c0 185 -3 240 -12 240 -25 0 -403 -59
-427 -66 -17 -5 -22 -4 -17 4 4 7 14 12 22 12 8 0 37 11 64 25 27 14 66 25 87
25 21 0 88 7 148 15 61 8 116 15 123 15 9 0 12 24 12 85 l0 85 -62 0 c-43 0
-58 3 -48 10 12 8 12 10 -3 16 -10 4 -23 2 -30 -5 -17 -17 -26 -13 -20 9 3 11
0 20 -6 20 -5 0 -8 8 -5 18 4 9 -2 5 -13 -10 l-19 -27 -11 29 c-10 26 -16 30
-48 30 l-37 0 16 -25 c22 -33 21 -35 -15 -22 -26 10 -32 9 -40 -6 -6 -9 -17
-17 -24 -17 -8 0 -15 -5 -15 -11 0 -5 5 -7 10 -4 16 10 12 -11 -5 -25 -13 -11
-15 -8 -15 13 0 24 -5 27 -52 34 -29 4 -59 6 -65 5 -8 -2 -13 8 -13 25 0 15
-4 23 -8 18 -9 -13 -66 -12 -84 2 -7 6 -21 8 -31 4 -17 -6 -17 -8 2 -25 30
-27 26 -42 -5 -21 -26 17 -60 14 -49 -5 8 -13 -1 -13 -26 0 -13 7 -19 7 -19 0
0 -15 -33 -12 -58 6 -21 14 -73 17 -97 5 -5 -3 -32 -6 -60 -8 -27 -1 -143 -8
-257 -14 l-208 -12 0 -25 c0 -22 3 -24 40 -20 45 4 49 -1 20 -27 -11 -10 -20
-13 -20 -8 0 6 -8 10 -17 10 -10 0 -46 1 -80 2 l-63 1 0 74 c0 55 4 75 14 79
8 3 13 16 12 31 -2 14 0 25 3 24 12 -1 26 3 39 11 10 6 11 13 1 35 -15 32 -46
31 -41 -2 3 -19 -1 -22 -27 -22 -20 0 -35 7 -43 20 -16 25 -40 26 -36 3 1 -10
-2 -24 -7 -32 -5 -10 -4 -16 3 -19 15 -5 3 -32 -14 -32 -8 0 -14 -4 -14 -9 0
-16 19 -23 41 -16 15 5 20 13 17 29 -3 13 0 23 6 23 7 0 11 -36 12 -100 l1
-100 -106 8 c-58 5 -121 9 -138 9 -18 0 -33 3 -33 7 0 12 36 17 54 7 19 -10
46 -4 46 10 0 5 -17 9 -38 9 -21 0 -44 3 -51 7 -7 4 -14 6 -15 5 -2 -2 -6 -52
-10 -112 -6 -98 -5 -107 11 -107 15 0 16 -2 3 -10 -12 -8 -9 -10 12 -10 15 0
30 -5 34 -12 5 -8 -2 -9 -24 -5 -22 4 -32 3 -34 -6 0 -6 -2 -16 -2 -22 -1 -5
-5 -12 -9 -15 -11 -8 -9 1171 3 1185 9 11 -5 35 -19 35 -4 0 -4 -102 -2 -227z"/>
<path d="M2435 1489 c-223 -134 -281 -179 -231 -179 7 0 95 -31 197 -70 101
-38 189 -70 195 -70 24 0 31 161 13 268 -11 61 -41 112 -66 112 -4 0 -53 -28
-108 -61z"/>
<path d="M9924 1265 c-13 -20 -19 -55 -22 -132 -5 -101 -4 -106 14 -98 11 4
72 26 137 48 64 23 117 44 117 47 -1 7 -192 148 -212 155 -11 4 -22 -2 -34
-20z"/>
<path d="M360 1091 c-6 -22 -9 -46 -8 -53 2 -10 -17 -13 -76 -15 -69 -1 -82
-4 -103 -26 -22 -22 -29 -23 -65 -16 -43 10 -58 6 -58 -17 0 -23 -25 -11 -28
14 -2 12 -8 22 -13 22 -5 0 -9 -198 -9 -500 l0 -500 60 0 c33 0 60 4 60 9 0 5
32 15 72 22 42 7 80 21 90 31 10 10 25 18 33 18 18 0 20 29 2 36 -7 2 -57 -5
-111 -16 -54 -11 -102 -18 -106 -15 -9 6 -34 104 -28 110 4 4 174 41 378 82
74 14 130 31 137 40 8 10 19 12 34 8 13 -5 19 -3 15 3 -3 5 1 13 10 16 8 3 12
2 9 -4 -3 -6 4 -10 17 -10 17 0 19 3 9 9 -11 7 -11 10 0 17 7 4 14 3 17 -4 5
-17 34 -12 432 72 91 19 192 41 225 49 33 8 116 26 185 42 69 15 128 30 131
34 4 3 10 93 14 199 l7 192 -31 6 c-17 4 -31 11 -31 16 0 6 -13 8 -30 6 -16
-3 -30 -1 -30 4 0 4 13 8 29 8 27 0 30 3 29 33 -1 46 -7 51 -33 27 -23 -21
-23 -21 -18 -2 8 32 -13 35 -37 5 l-22 -28 4 25 c4 35 -25 38 -41 4 -14 -31
-15 -29 28 -47 l33 -14 -26 -5 c-15 -3 -29 -1 -32 3 -3 5 -10 9 -15 9 -6 0 -7
-4 -4 -10 10 -16 -48 -11 -69 5 -32 24 -56 19 -56 -11 0 -20 -4 -25 -16 -20
-9 3 -22 6 -30 6 -20 0 -17 18 4 23 9 3 -8 3 -39 0 l-56 -5 1 42 c1 57 -18 72
-41 31 -20 -35 -29 -37 -60 -16 -17 12 -23 12 -27 2 -4 -6 -4 -2 -2 10 3 19
-19 53 -27 42 -36 -51 -39 -61 -20 -75 10 -7 23 -14 28 -14 6 0 4 -4 -4 -9
-22 -14 -71 10 -71 36 0 12 -4 24 -9 27 -15 10 -42 -6 -37 -21 8 -20 -23 -28
-40 -11 -20 20 -59 11 -72 -15 -6 -12 -11 -17 -11 -11 -1 8 -15 7 -48 -1 -27
-7 -50 -9 -53 -5 -4 7 -56 15 -70 11 -3 -1 -42 -4 -87 -7 -58 -4 -91 -1 -116
9 -33 14 -34 16 -29 62 3 33 0 50 -9 56 -23 14 -28 11 -39 -30z m611 -230 c4
7 11 10 15 6 4 -4 2 -13 -4 -19 -7 -7 -12 -25 -12 -40 0 -18 -5 -28 -15 -28
-18 0 -19 -4 -3 -30 10 -16 10 -22 0 -32 -11 -11 -13 -10 -10 1 6 25 -18 22
-30 -4 -7 -15 -16 -24 -21 -21 -5 3 -11 -1 -15 -9 -3 -8 -12 -12 -21 -9 -13 5
-15 22 -14 90 l2 84 48 0 c26 0 51 5 55 12 6 9 9 9 12 -1 4 -11 6 -11 13 0z"/>
<path d="M5847 792 c-8 -11 8 -69 24 -88 15 -18 5 -18 -33 2 -17 9 -46 14 -64
12 -19 -2 -35 0 -37 5 -1 5 -4 -20 -5 -57 l-3 -66 61 0 c45 0 62 4 66 15 8 21
24 19 25 -2 0 -15 2 -15 9 2 7 17 9 17 9 3 1 -28 41 -23 42 5 0 12 3 16 6 10
2 -7 11 -13 19 -13 8 0 14 -4 14 -10 0 -5 9 -10 20 -10 22 0 27 33 10 60 -7
11 -10 7 -10 -19 0 -29 -2 -32 -15 -21 -23 19 -18 48 13 65 25 15 25 16 4 11
-23 -5 -23 -4 -5 16 14 16 15 20 3 18 -27 -4 -41 0 -35 10 3 6 0 13 -8 16 -8
3 -18 15 -22 27 -6 21 -6 21 -14 2 -8 -19 -8 -19 -19 0 -10 17 -13 18 -22 5
-8 -12 -11 -13 -19 -1 -5 7 -11 9 -14 3z"/>
</g>
</svg>
